<svg width="663" height="576" viewBox="0 0 663 576" fill="none" xmlns="http://www.w3.org/2000/svg">
<path fill-rule="evenodd" clip-rule="evenodd" d="M487.589 71.9567C481.149 64.3981 476.791 55.135 477.519 44.7553C479.618 14.8486 521.249 21.4277 529.347 36.522C537.445 51.6164 536.483 89.9043 526.017 92.6021C521.843 93.678 512.951 91.0425 503.902 85.588L509.582 125.773H476.042L487.589 71.9567Z" fill="#B28B67"/>
<path fill-rule="evenodd" clip-rule="evenodd" d="M544.206 15.5969C543.511 13.1556 541.643 11.0653 539.126 10.4452C538.515 10.2948 537.885 10.234 537.256 10.2594C537.031 10.2684 536.968 10.3333 536.862 10.1758C536.784 10.0589 536.783 9.77352 536.75 9.63623C536.65 9.20929 536.525 8.78767 536.371 8.37698C535.844 6.97622 534.959 5.73652 533.892 4.69221C531.896 2.73851 529.199 1.39015 526.396 1.14621C524.863 1.01277 523.34 1.26194 521.891 1.76083C521.14 2.01909 520.412 2.34067 519.703 2.6962C519.49 2.80321 518.797 3.32734 518.583 3.29338C518.346 3.25594 517.871 2.66803 517.679 2.52045C515.301 0.696241 512.365 -0.0209813 509.403 0.000465917C506.06 0.0256404 502.842 0.192672 500.054 2.23044C499.464 2.66188 498.902 3.13424 498.366 3.63157C498.085 3.89341 497.812 4.16506 497.551 4.448C497.394 4.6187 497.241 4.79326 497.094 4.9725C496.844 5.27673 496.884 5.37667 496.535 5.1644C495.193 4.34925 493.638 3.96802 492.072 4.16047C491.142 4.27482 490.237 4.554 489.378 4.92147C489.086 5.04656 488.409 5.54554 488.097 5.5504C487.788 5.55518 487.12 5.09263 486.802 4.97507C485.081 4.33989 483.226 4.18332 481.418 4.47682C479.552 4.77968 477.72 5.52397 476.139 6.55249C475.379 7.04725 474.716 7.59543 474.183 8.33109C473.953 8.64873 473.745 8.98472 473.484 9.27922C473.332 9.45167 473.029 9.62861 472.947 9.84685C472.996 9.71616 470.907 8.91074 470.71 8.85926C469.66 8.58494 468.59 8.64056 467.562 8.97903C465.628 9.61549 463.965 11.0428 462.598 12.5061C461.896 13.2578 461.281 14.0886 460.76 14.9738C460.51 15.3978 460.281 15.8339 460.072 16.2793C459.971 16.495 459.904 16.7649 459.77 16.9593C459.598 17.2098 459.482 17.2145 459.171 17.3238C457.588 17.8783 456.145 18.8168 455.046 20.0851C453.935 21.3682 453.214 22.9483 452.911 24.6123C452.894 24.7103 452.883 25.1165 452.826 25.1695C452.747 25.2426 452.429 25.2103 452.308 25.2244C451.891 25.2733 451.477 25.3461 451.069 25.4428C450.316 25.621 449.583 25.8833 448.889 26.2264C446.187 27.5636 444.254 30.0707 443.308 32.8916C442.315 35.8521 442.333 39.2439 443.519 42.1491C443.711 42.6183 443.939 43.0738 444.207 43.5047C444.371 43.7692 444.424 43.7698 444.317 44.0474C444.198 44.3561 443.981 44.6561 443.84 44.9578C443.379 45.9422 443.056 46.9864 442.853 48.0528C442.519 49.8021 442.353 51.6405 442.683 53.4031C442.836 54.2215 443.102 55.0216 443.509 55.7506C443.716 56.1223 443.959 56.4748 444.233 56.8009C444.375 56.9702 444.526 57.1319 444.684 57.2868C444.775 57.3753 444.893 57.4527 444.97 57.5516C445.157 57.7926 445.197 57.5944 445.1 57.9483C444.965 58.4431 444.658 58.9312 444.471 59.4127C444.277 59.9088 444.102 60.4118 443.942 60.9196C443.618 61.9481 443.345 62.9951 443.173 64.0602C442.844 66.105 442.902 68.2838 443.869 70.1606C444.283 70.9633 444.876 71.6675 445.596 72.2153C445.948 72.4833 446.329 72.7143 446.73 72.904C446.935 73.0016 447.198 73.0435 447.292 73.2424C447.393 73.4562 447.243 73.8808 447.209 74.1199C446.911 76.1997 446.762 78.3834 447.38 80.4215C447.95 82.2988 449.203 83.9563 450.831 85.0536C453.989 87.1823 458.246 87.0623 461.564 85.3581C462.428 84.9138 463.238 84.3623 463.959 83.7117C465.797 86.1859 469.58 86.1077 472.266 85.4026C475.613 84.5244 478.298 82.1972 479.845 79.1396C481.961 81.7151 486.401 80.8795 487.868 78.0855C488.227 77.4017 488.44 76.648 488.545 75.8854C488.6 75.4843 488.565 75.0798 488.606 74.6819C488.659 74.175 488.998 73.6823 489.193 73.1919C489.572 72.2374 489.807 71.2515 489.817 70.222C489.822 69.6844 489.754 69.1606 489.703 68.6274C489.657 68.1474 489.79 67.7002 489.866 67.2264C489.008 67.3677 487.962 67.1363 487.153 66.8874C486.36 66.6432 485.617 65.9999 485.056 65.4125C483.756 64.0483 482.961 62.2601 482.418 60.4803C481.225 56.574 481.714 51.8873 485.643 49.7435C487.474 48.7448 492.957 48.748 495.137 49.2416C497.429 49.7606 500.028 54.8184 500.156 55.2938C500.235 55.5881 500.195 55.9522 500.465 56.1483C501.059 56.5793 502.039 55.8313 502.477 55.4621C503.233 54.8249 503.773 53.977 504.24 53.1177C505.257 51.2455 506.078 49.2377 506.657 47.1881C507.104 45.6079 507.39 43.9784 507.974 42.4385C508.555 40.9063 509.471 39.5367 510.895 38.6687C512.445 37.7244 514.221 37.2271 515.922 36.6337C517.608 36.0456 519.265 35.3268 520.572 34.0789C520.859 33.8045 521.138 33.513 521.37 33.1899C521.552 32.9349 521.733 32.4466 522.011 32.2849C522.444 32.0334 523.075 32.6875 523.449 32.9251C525.294 34.097 526.834 35.7315 528.075 37.5171C529.31 39.293 530.323 41.0017 531.147 42.9847C531.757 44.4554 532.138 46.3389 533.212 47.5442C533.692 48.0823 537.256 48.4079 538.411 47.9381C539.565 47.4682 540.859 46.2482 541.247 45.4836C541.643 44.7011 541.738 43.8414 541.569 42.9847C541.469 42.4807 541.265 42.0099 541.154 41.5148C541.06 41.099 540.975 40.7059 540.773 40.325C540.389 39.6031 539.734 39.0842 538.943 38.8672C539.766 38.1089 540.447 37.2017 540.919 36.1876C541.409 35.134 541.824 33.8527 541.942 32.6964C542.038 31.7571 541.89 30.784 541.376 29.9769C540.837 29.1302 539.881 28.5778 539.054 28.0496C540.317 27.0615 541.398 25.8599 542.287 24.5296C544.015 21.9424 545.083 18.6813 544.206 15.5969Z" fill="#191847"/>
<path fill-rule="evenodd" clip-rule="evenodd" d="M464.967 241.418L532.16 419.215L579.258 550.261H606.112L541.373 241.418L464.967 241.418Z" fill="#1F28CF"/>
<path fill-rule="evenodd" clip-rule="evenodd" d="M448.361 241.418C447.63 302.424 448.158 384.558 446.456 388.361C445.322 390.896 410.034 419.782 340.592 475.017L354.434 498.554C436.877 445.388 480.206 415.264 484.421 408.18C490.744 397.555 522.508 299.781 539.034 241.418H448.361Z" fill="#2B44FF"/>
<path fill-rule="evenodd" clip-rule="evenodd" d="M316.239 490.856L339.619 473.063L358.483 495.544C359.934 512.492 365.545 531.499 375.317 552.565L371.034 556.158L336.9 515.478L327.363 499.765L325.222 501.561L316.239 490.856Z" fill="#191847"/>
<path fill-rule="evenodd" clip-rule="evenodd" d="M576.766 575.415L578.163 546.068H607.51C621.426 555.851 639.593 563.77 662.012 569.825V575.415H608.908L590.74 572.62V575.415H576.766Z" fill="#191847"/>
<path fill-rule="evenodd" clip-rule="evenodd" d="M583.419 223.741L627.996 256.475C640.086 259.737 650.187 263.796 658.299 268.652C660.215 270.398 662.531 273.934 654.584 273.322C646.637 272.711 638.251 272.426 637.155 275.136C636.058 277.847 640.867 281.088 638.651 284.746C637.173 287.184 630.192 281.07 617.708 266.405L573.565 248.1L583.419 223.741ZM412.265 224.871L441.469 224.985C423.437 283.195 413.702 314.081 412.265 317.643C409.032 325.657 415.874 337.862 418.801 344.421C409.27 348.686 410.285 332.891 398.262 338.485C387.288 343.59 378.941 352.841 366.262 345.018C364.703 344.056 362.995 340.435 367.122 337.605C377.404 330.554 392.222 318.215 394.224 314.153C396.954 308.614 402.968 278.853 412.265 224.871Z" fill="#B28B67"/>
<path fill-rule="evenodd" clip-rule="evenodd" d="M495.257 102.329L507.341 100.256C552.177 138.988 570.593 213.396 625.55 252.813L612.322 269.209C516.981 257.405 493.35 166.645 495.257 102.329Z" fill="#E87613"/>
<path fill-rule="evenodd" clip-rule="evenodd" d="M442.579 254.19C491.032 254.19 526.673 254.19 549.502 254.19C554.388 254.19 553.467 247.135 552.761 243.575C544.61 202.488 512.79 158.199 512.79 99.7137L481.949 94.8774C456.439 135.905 447.617 186.418 442.579 254.19Z" fill="#DDE3E9"/>
<path fill-rule="evenodd" clip-rule="evenodd" d="M443.438 135.206C438.959 133.918 435.412 130.915 432.797 126.196C421.524 105.856 425.595 94.6571 437.642 90.976C449.689 87.2948 460.432 94.8774 479.626 94.8774C480.67 94.8774 481.626 94.9428 482.495 95.0737L492.15 95.6247C519.851 189.508 527.491 252.145 515.069 283.537H430.913C425.926 295.164 421.155 304.946 416.598 312.884H393.667C391.509 243.104 408.099 183.878 443.438 135.206Z" fill="#FF9B21"/>
<path fill-rule="evenodd" clip-rule="evenodd" d="M449.238 235.32C451.885 257.465 456.187 273.538 462.144 283.537H430.913C436.729 269.974 442.837 253.902 449.238 235.32H449.238Z" fill="black" fill-opacity="0.1"/>
<path fill-rule="evenodd" clip-rule="evenodd" d="M238.168 178.876C244.342 171.629 248.522 162.747 247.823 152.794C245.811 124.117 205.892 130.426 198.127 144.899C190.362 159.373 191.285 196.086 201.321 198.673C205.323 199.704 213.849 197.177 222.526 191.947L217.079 230.48H249.239L238.168 178.876Z" fill="#B28B67"/>
<path fill-rule="evenodd" clip-rule="evenodd" d="M216.458 128.218C220.696 127.523 232.109 127.045 234.214 127.045C235.559 127.045 237.016 127.353 237.813 126.118C238.465 125.106 238.226 123.396 238.421 122.222C238.647 120.859 238.968 119.513 239.293 118.171C240.217 114.351 241.615 110.717 243.57 107.305C247.239 100.904 252.615 95.8904 259.401 92.9727C266.895 89.7512 275.375 89.0136 283.436 89.667C292.062 90.3661 299.87 93.2137 308.014 95.8934C315.776 98.447 323.905 99.4521 332.022 98.2051C340.2 96.9489 346.38 92.5161 353.279 88.3089C360.341 84.0018 368.411 81.1847 376.76 81.8323C384.553 82.437 391.736 85.6548 398.18 89.9533C404.209 93.9751 409.184 98.8138 411.993 105.624C415.014 112.95 415.011 120.991 410.043 127.465C402.841 136.849 389.47 139.276 378.347 139.035C371.913 138.896 365.594 137.721 359.519 135.585C351.418 132.735 344.418 127.906 336.839 123.987C333.282 122.149 329.606 120.638 325.752 119.551C322.013 118.495 318.33 118.01 314.944 120.269C311.363 122.659 308.153 125.006 304.056 126.502C300.125 127.938 295.961 128.74 291.774 128.708C283.626 128.645 275.593 126.106 267.68 124.406C261.226 123.019 254.321 121.637 247.742 122.97C244.997 123.526 240.987 124.675 239.995 127.528C256.684 130.553 263.239 151.192 258.534 166.344C255.995 174.521 240.731 184.081 234.796 179.782C231.036 177.058 233.319 173.483 234.796 171.122C237.625 166.602 238.593 160.795 233.358 157.648C228.843 154.934 224.095 161.38 224.005 161.372C222.764 161.275 212.041 155.21 204.652 146.36C197.363 146.792 196.258 141.986 197.998 138.056C199.738 134.125 210.601 129.179 216.458 128.218Z" fill="#191847"/>
<path d="M262.639 574.859C205.655 574.859 159.46 530.763 159.46 476.369C159.46 421.975 205.655 377.879 262.639 377.879C319.624 377.879 365.819 421.975 365.819 476.369C365.819 530.763 319.624 574.859 262.639 574.859Z" fill="#C5CFD6"/>
<path fill-rule="evenodd" clip-rule="evenodd" d="M67.6572 559.663C84.8263 521.663 97.2428 488.574 102.227 471.116C110.76 441.224 117.252 414.921 118.893 405.098C122.806 381.674 88.7943 380.31 84.2987 391.952C77.4944 409.571 65.6156 467.461 51.3423 554.903L67.6572 559.663ZM266.809 440.408C251.056 434.182 195.891 414.695 169.285 409.183C161.64 407.599 154.23 406.127 147.263 404.797C126.554 400.844 115.826 438.202 135.77 441.073C185.44 448.221 255.855 455.603 261.881 456.432C270.327 457.593 276.709 444.321 266.809 440.408Z" fill="#B28B67"/>
<path fill-rule="evenodd" clip-rule="evenodd" d="M134.553 394.517L219.76 351.142V341.699H209.626C127.193 362.705 85.0692 376.166 83.2558 382.084C83.2363 382.148 83.2184 382.211 83.2022 382.275C83.1607 382.33 83.1199 382.384 83.0798 382.439C66.7432 404.907 56.9593 514.595 53.7481 522.808L85.0526 527.478C97.0275 483.073 135.34 452.139 134.322 398.956C134.597 397.396 134.666 395.916 134.553 394.517Z" fill="#1F28CF"/>
<path fill-rule="evenodd" clip-rule="evenodd" d="M212.68 420.277C220.476 418.717 227.656 417.324 233.799 416.246C273.481 409.286 285.052 388.045 278.211 341.699H205.098C193.154 345.13 131.086 371.159 98.8829 385.003C77.5689 394.166 84.2877 427.197 96.3578 435.793C96.4234 436.321 96.6406 436.679 97.0274 436.839C161.956 463.75 213.321 449.63 230.479 454.141L238.416 429.105L212.68 420.277Z" fill="#2B44FF"/>
<path fill-rule="evenodd" clip-rule="evenodd" d="M261.423 436.429C265.677 436.836 268.697 437.475 270.483 438.345C272.654 439.405 275.647 441.312 279.461 444.068C278.232 446.588 267.188 469.231 246.33 511.997C239.633 510.916 236.979 508.361 238.369 504.331C239.759 500.3 240.879 496.936 241.731 494.238L243.055 455.8C243.081 455.06 243.701 454.481 244.44 454.507C244.453 454.507 244.466 454.508 244.478 454.508L250.391 454.88C253.751 452.16 255.968 449.7 257.041 447.499C257.914 445.71 258.396 442.888 258.488 439.032L258.488 439.032C258.524 437.553 259.752 436.382 261.232 436.417C261.296 436.419 261.359 436.423 261.423 436.429Z" fill="#E4E4E4"/>
<path fill-rule="evenodd" clip-rule="evenodd" d="M75.471 552.617C76.9702 556.619 77.7197 559.614 77.7197 561.6C77.7197 564.017 77.3172 567.543 76.5121 572.179C73.7089 572.179 48.5161 572.179 0.933792 572.179C-1.03022 565.686 0.103523 562.18 4.33501 561.663C8.56651 561.145 12.0817 560.678 14.8805 560.26L50.0086 544.6C50.6845 544.299 51.4768 544.602 51.7781 545.278C51.7833 545.29 51.7882 545.302 51.7931 545.313L54.0511 550.791C57.9683 552.618 61.1515 553.532 63.6006 553.532C65.5904 553.532 68.3384 552.729 71.8445 551.121L71.8445 551.121C73.19 550.504 74.7808 551.095 75.3976 552.441C75.4241 552.499 75.4487 552.558 75.471 552.617Z" fill="#E4E4E4"/>
<path fill-rule="evenodd" clip-rule="evenodd" d="M136.68 305.006L88.1255 283.683C79.6199 275.207 71.4066 268.765 63.4854 264.357C61.1169 263.603 57.0703 263.375 61.3877 269.681C65.7051 275.987 69.9627 282.814 68.2376 285.024C66.5125 287.235 61.5152 284.795 59.5409 288.389C58.2248 290.785 66.6484 293.651 84.8117 296.987L121.176 324.868L136.68 305.006ZM332.978 310.879L305.519 316.328C333.134 367.79 347.943 395.066 349.947 398.154C354.455 405.101 350.249 417.834 348.695 424.539C358.443 426.809 354.599 412.136 366.935 415.2C378.195 417.996 387.742 425.172 398.242 415.494C399.533 414.304 400.478 410.585 396.077 408.677C385.112 403.925 368.912 395.026 366.285 391.571C362.703 386.86 351.601 359.963 332.978 310.879Z" fill="#B28B67"/>
<path fill-rule="evenodd" clip-rule="evenodd" d="M230.888 208.144L219.301 206.157C194.063 230.639 183.764 289.456 166.945 297.241C151.043 304.602 128.501 297.479 101.706 287.862L93.5003 306.195C117.846 332.534 169.712 354.787 190.735 342.083C224.347 321.773 232.107 249.231 230.888 208.144Z" fill="#DB2721"/>
<path fill-rule="evenodd" clip-rule="evenodd" d="M281.399 353.759C234.939 353.759 200.764 353.759 178.874 353.759C174.189 353.759 175.072 346.994 175.749 343.581C183.565 304.184 214.076 261.717 214.076 205.637L243.649 201C268.11 240.34 276.569 288.775 281.399 353.759Z" fill="#DDE3E9"/>
<path fill-rule="evenodd" clip-rule="evenodd" d="M291.625 313.872C312.526 351.572 330.094 378.715 344.329 395.299L365.819 391.09C351.976 305.239 311.889 241.875 245.557 201H240.219L233.848 201C207.299 291.499 199.98 351.799 211.891 381.899H304.179C302.719 359.874 298.037 336.582 291.625 313.872H291.625Z" fill="#FF4133"/>
<path fill-rule="evenodd" clip-rule="evenodd" d="M238.168 178.876C244.342 171.629 248.522 162.747 247.823 152.794C245.811 124.117 205.892 130.426 198.127 144.899C190.362 159.373 191.285 196.086 201.321 198.673C205.323 199.704 213.849 197.177 222.526 191.947L217.079 230.48H249.239L238.168 178.876Z" fill="#B28B67"/>
<path fill-rule="evenodd" clip-rule="evenodd" d="M216.458 128.218C220.696 127.523 232.109 127.045 234.214 127.045C235.559 127.045 237.016 127.353 237.813 126.118C238.465 125.106 238.226 123.396 238.421 122.222C238.647 120.859 238.968 119.513 239.293 118.171C240.217 114.351 241.615 110.717 243.57 107.305C247.239 100.904 252.615 95.8904 259.401 92.9727C266.895 89.7512 275.375 89.0136 283.436 89.667C292.062 90.3661 299.87 93.2137 308.014 95.8934C315.776 98.447 323.905 99.4521 332.022 98.2051C340.2 96.9489 346.38 92.5161 353.279 88.3089C360.341 84.0018 368.411 81.1847 376.76 81.8323C384.553 82.437 391.736 85.6548 398.18 89.9533C404.209 93.9751 409.184 98.8138 411.993 105.624C415.014 112.95 415.011 120.991 410.043 127.465C402.841 136.849 389.47 139.276 378.347 139.035C371.913 138.896 365.594 137.721 359.519 135.585C351.418 132.735 344.418 127.906 336.839 123.987C333.282 122.149 329.606 120.638 325.752 119.551C322.013 118.495 318.33 118.01 314.944 120.269C311.363 122.659 308.153 125.006 304.056 126.502C300.125 127.938 295.961 128.74 291.774 128.708C283.626 128.645 275.593 126.106 267.68 124.406C261.226 123.019 254.321 121.637 247.742 122.97C244.997 123.526 240.987 124.675 239.995 127.528C256.684 130.553 263.239 151.192 258.534 166.344C255.995 174.521 240.731 184.081 234.796 179.782C231.036 177.058 233.319 173.483 234.796 171.122C237.625 166.602 238.593 160.795 233.358 157.648C228.843 154.934 224.095 161.38 224.005 161.372C222.764 161.275 212.041 155.21 204.652 146.36C197.363 146.792 196.258 141.986 197.998 138.056C199.738 134.125 210.601 129.179 216.458 128.218Z" fill="#191847"/>
<path d="M262.639 574.859C205.655 574.859 159.46 530.763 159.46 476.369C159.46 421.975 205.655 377.879 262.639 377.879C319.624 377.879 365.819 421.975 365.819 476.369C365.819 530.763 319.624 574.859 262.639 574.859Z" fill="#C5CFD6"/>
<path fill-rule="evenodd" clip-rule="evenodd" d="M67.6572 559.663C84.8263 521.663 97.2428 488.574 102.227 471.116C110.76 441.224 117.252 414.921 118.893 405.098C122.806 381.674 88.7943 380.31 84.2987 391.952C77.4944 409.571 65.6156 467.461 51.3423 554.903L67.6572 559.663ZM266.809 440.408C251.056 434.182 195.891 414.695 169.285 409.183C161.64 407.599 154.23 406.127 147.263 404.797C126.554 400.844 115.826 438.202 135.77 441.073C185.44 448.221 255.855 455.603 261.881 456.432C270.327 457.593 276.709 444.321 266.809 440.408Z" fill="#B28B67"/>
<path fill-rule="evenodd" clip-rule="evenodd" d="M134.553 394.517L219.76 351.142V341.699H209.626C127.193 362.705 85.0692 376.166 83.2558 382.084C83.2363 382.148 83.2184 382.211 83.2022 382.275C83.1607 382.33 83.1199 382.384 83.0798 382.439C66.7432 404.907 56.9593 514.595 53.7481 522.808L85.0526 527.478C97.0275 483.073 135.34 452.139 134.322 398.956C134.597 397.396 134.666 395.916 134.553 394.517Z" fill="#1F28CF"/>
<path fill-rule="evenodd" clip-rule="evenodd" d="M212.68 420.277C220.476 418.717 227.656 417.324 233.799 416.246C273.481 409.286 285.052 388.045 278.211 341.699H205.098C193.154 345.13 131.086 371.159 98.8829 385.003C77.5689 394.166 84.2877 427.197 96.3578 435.793C96.4234 436.321 96.6406 436.679 97.0274 436.839C161.956 463.75 213.321 449.63 230.479 454.141L238.416 429.105L212.68 420.277Z" fill="#2B44FF"/>
<path fill-rule="evenodd" clip-rule="evenodd" d="M261.423 436.429C265.677 436.836 268.697 437.475 270.483 438.345C272.654 439.405 275.647 441.312 279.461 444.068C278.232 446.588 267.188 469.231 246.33 511.997C239.633 510.916 236.979 508.361 238.369 504.331C239.759 500.3 240.879 496.936 241.731 494.238L243.055 455.8C243.081 455.06 243.701 454.481 244.44 454.507C244.453 454.507 244.466 454.508 244.478 454.508L250.391 454.88C253.751 452.16 255.968 449.7 257.041 447.499C257.914 445.71 258.396 442.888 258.488 439.032L258.488 439.032C258.524 437.553 259.752 436.382 261.232 436.417C261.296 436.419 261.359 436.423 261.423 436.429Z" fill="#E4E4E4"/>
<path fill-rule="evenodd" clip-rule="evenodd" d="M75.471 552.617C76.9702 556.619 77.7197 559.614 77.7197 561.6C77.7197 564.017 77.3172 567.543 76.5121 572.179C73.7089 572.179 48.5161 572.179 0.933792 572.179C-1.03022 565.686 0.103523 562.18 4.33501 561.663C8.56651 561.145 12.0817 560.678 14.8805 560.26L50.0086 544.6C50.6845 544.299 51.4768 544.602 51.7781 545.278C51.7833 545.29 51.7882 545.302 51.7931 545.313L54.0511 550.791C57.9683 552.618 61.1515 553.532 63.6006 553.532C65.5904 553.532 68.3384 552.729 71.8445 551.121L71.8445 551.121C73.19 550.504 74.7808 551.095 75.3976 552.441C75.4241 552.499 75.4487 552.558 75.471 552.617Z" fill="#E4E4E4"/>
<path fill-rule="evenodd" clip-rule="evenodd" d="M136.68 305.006L88.1255 283.683C79.6199 275.207 71.4066 268.765 63.4854 264.357C61.1169 263.603 57.0703 263.375 61.3877 269.681C65.7051 275.987 69.9627 282.814 68.2376 285.024C66.5125 287.235 61.5152 284.795 59.5409 288.389C58.2248 290.785 66.6484 293.651 84.8117 296.987L121.176 324.868L136.68 305.006ZM332.978 310.879L305.519 316.328C333.134 367.79 347.943 395.066 349.947 398.154C354.455 405.101 350.249 417.834 348.695 424.539C358.443 426.809 354.599 412.136 366.935 415.2C378.195 417.996 387.742 425.172 398.242 415.494C399.533 414.304 400.478 410.585 396.077 408.677C385.112 403.925 368.912 395.026 366.285 391.571C362.703 386.86 351.601 359.963 332.978 310.879Z" fill="#B28B67"/>
<path fill-rule="evenodd" clip-rule="evenodd" d="M230.888 208.144L219.301 206.157C194.063 230.639 183.764 289.456 166.945 297.241C151.043 304.602 128.501 297.479 101.706 287.862L93.5003 306.195C117.846 332.534 169.712 354.787 190.735 342.083C224.347 321.773 232.107 249.231 230.888 208.144Z" fill="#DB2721"/>
<path fill-rule="evenodd" clip-rule="evenodd" d="M281.399 353.759C234.939 353.759 200.764 353.759 178.874 353.759C174.189 353.759 175.072 346.994 175.749 343.581C183.565 304.184 214.076 261.717 214.076 205.637L243.649 201C268.11 240.34 276.569 288.775 281.399 353.759Z" fill="#DDE3E9"/>
<path fill-rule="evenodd" clip-rule="evenodd" d="M291.625 313.872C312.526 351.572 330.094 378.715 344.329 395.299L365.819 391.09C351.976 305.239 311.889 241.875 245.557 201H240.219L233.848 201C207.299 291.499 199.98 351.799 211.891 381.899H304.179C302.719 359.874 298.037 336.582 291.625 313.872H291.625Z" fill="#FF4133"/>
</svg>
